<svg xmlns="http://www.w3.org/2000/svg" width="247" height="201" fill="none"><path fill="url(#a)" fill-rule="evenodd" d="M19.297 0C8.645 0 0 8.645 0 19.297v131.219c0 10.651 8.645 19.296 19.297 19.296h57.89c13.832 0 22.77 3.165 27.927 6.916 4.894 3.551 6.808 7.874 6.808 12.381a11.578 11.578 0 1 0 23.156 0c0-4.507 1.914-8.83 6.808-12.381 5.156-3.751 14.094-6.916 27.926-6.916h57.891c10.652 0 19.297-8.645 19.297-19.296V19.296C247 8.646 238.355 0 227.703 0h-57.891c-17.814 0-32.511 5.465-42.792 15.438a53.817 53.817 0 0 0-3.52 3.797 48.295 48.295 0 0 0-3.52-3.797C109.699 5.464 95.002 0 77.187 0h-57.89zm115.781 153.866c9.417-4.771 21.18-7.21 34.734-7.21h54.032v-123.5h-54.032c-13.06 0-21.519 3.906-26.675 8.908-5.172 5.017-8.059 12.149-8.059 20.686v101.116zm-23.156 0V52.75c0-8.537-2.887-15.67-8.058-20.686-5.157-5.002-13.616-8.908-26.677-8.908h-54.03v123.5h54.03c13.555 0 25.318 2.439 34.735 7.21z" clip-rule="evenodd"/><defs><linearGradient id="a" x1="123.5" x2="123.5" y1="0" y2="200.688" gradientUnits="userSpaceOnUse"><stop stop-color="#1CE5A7"/><stop offset="1" stop-color="#0DBD88"/></linearGradient></defs></svg>